#!OML:ASF F:\VICON\USERDATA\INSTALL\Justin_Nancy\Justin_Nancy.ASF
:FULLY-SPECIFIED
:DEGREES
495
root -0.282722 17.4225 46.1287 0.315498 1.43831 1.66732
lowerback 5.15672 -1.64344 -3.61144
upperback 0.595401 -2.32193 3.14569
thorax -2.00171 -1.12459 5.44715
lowerneck -18.3965 -2.25897 -8.60636
upperneck 21.9517 -1.73284 4.4453
head 10.1676 -0.998265 2.76791
rclavicle -7.05686e-015 3.33958e-014
rhumerus -37.9077 -29.9695 -66.5238
rradius 19.5197
rwrist 20.7148
rhand -15.1842 10.4279
rfingers 7.12502
rthumb 10.9871 -19.2646
lclavicle -7.05686e-015 3.33958e-014
lhumerus -25.2907 13.3002 84.0975
lradius 27.5348
lwrist -10.6039
lhand -15.1269 24.3129
lfingers 7.12502
lthumb 11.0423 414.002
rfemur -20.234 1.11191 20.7124
rtibia 21.6352
rfoot 0.09624 -3.12681
rtoes 6.76951
lfemur 5.81876 -2.46916 -21.9834
ltibia 39.8311
lfoot 12.2943 -8.54461
ltoes -16.5747
496
root -0.312605 17.4239 46.292 0.289509 1.27292 1.19425
lowerback 4.39905 -1.56369 -3.24901
upperback 1.06047 -2.18234 3.26148
thorax -1.12336 -1.0891 5.31342
lowerneck -18.7082 -2.62353 -9.11554
upperneck 21.3085 -2.23974 5.20884
head 10.047 -1.17021 3.04389
rclavicle -3.50855e-014 3.49861e-014
rhumerus -36.8707 -29.686 -67.3411
rradius 19.5507
rwrist 20.2361
rhand -15.1557 10.795
rfingers 7.12502
rthumb 11.0145 -18.896
lclavicle -3.50855e-014 3.49861e-014
lhumerus -25.1469 13.0023 84.3539
lradius 27.7738
lwrist -10.4756
lhand -15.0294 24.5353
lfingers 7.12502
lthumb 11.1364 414.22
rfemur -18.9077 1.54617 21.4156
rtibia 20.9003
rfoot 0.239836 -3.2143
rtoes 6.24528
lfemur 4.18537 -2.17557 -21.2021
ltibia 42.6772
lfoot 14.5582 -9.03695
ltoes -12.3381
497
root -0.353548 17.4268 46.4497 0.212968 0.997797 0.350248
lowerback 5.23915 -1.32708 -2.41796
upperback 0.327793 -1.82334 3.37028
thorax -2.41452 -0.869565 4.98151
lowerneck -17.4534 -2.39729 -8.88605
upperneck 21.5998 -2.07463 5.02791
head 9.89797 -1.11514 2.96942
rclavicle 3.57315e-014 -5.56597e-015
rhumerus -38.0687 -28.4168 -67.4085
rradius 20.0016
rwrist 19.2079
rhand -15.14 10.8418
rfingers 7.12502
rthumb 11.0297 -18.8484
lclavicle 3.57315e-014 -5.56597e-015
lhumerus -26.8302 12.206 84.184
lradius 28.0052
lwrist -10.5154
lhand -14.846 24.2998
lfingers 7.12502
lthumb 11.3133 413.975
rfemur -17.6672 2.41102 22.5398
rtibia 20.1282
rfoot 0.321408 -3.57966
rtoes 5.68857
lfemur 2.64868 -1.7247 -19.9257
ltibia 45.3658
lfoot 16.7023 -9.68931
ltoes -8.93717
498
root -0.374908 17.4488 46.6189 0.0957756 1.00767 -0.0823061
lowerback 4.9997 -1.3061 -2.07629
upperback 0.566488 -1.77375 3.55584
thorax -2.04345 -0.859236 4.96463
lowerneck -17.931 -2.52807 -9.10059
upperneck 21.6392 -2.18631 5.1736
head 10.015 -1.16265 3.04247
rclavicle 7.8023e-015 -3.97569e-015
rhumerus -37.3113 -27.2323 -68.3412
rradius 20.4971
rwrist 18.0217
rhand -15.0509 10.7611
rfingers 7.12502
rthumb 11.1156 -18.9246
lclavicle 7.8023e-015 -3.97569e-015
lhumerus -26.5824 12.1819 84.4895
lradius 27.6183
lwrist -10.6418
lhand -14.5515 24.5143
lfingers 7.12502
lthumb 11.5973 414.173
rfemur -16.3414 2.48191 23.1531
rtibia 19.2089
rfoot 0.300088 -3.55833
rtoes 5.27206
lfemur 1.29011 -1.56461 -19.2647
ltibia 47.8409
lfoot 18.7099 -9.98219
ltoes -4.68431
499
root -0.390149 17.4962 46.7736 0.0455073 1.03384 -0.415804
lowerback 5.11115 -1.23839 -1.64028
upperback 0.604875 -1.65787 3.63431
thorax -2.08808 -0.804033 4.79421
lowerneck -18.1474 -2.50941 -8.99912
upperneck 21.6795 -2.11987 4.97847
head 10.0618 -1.14433 2.96555
rclavicle 7.35503e-015 1.35174e-014
rhumerus -36.9711 -26.3697 -68.9789
rradius 21.1238
rwrist 17.1889
rhand -14.9698 10.5492
rfingers 7.12502
rthumb 11.1939 -19.1322
lclavicle 7.35503e-015 1.35174e-014
lhumerus -26.4407 11.836 84.7608
lradius 27.002
lwrist -10.789
lhand -14.5402 24.4452
lfingers 7.12502
lthumb 11.6082 414.104
rfemur -15.3441 2.45476 23.633
rtibia 18.2369
rfoot 0.38935 -3.70958
rtoes 7.28758
lfemur -0.3083 -1.45213 -18.773
ltibia 50.2799
lfoot 20.5154 -9.92128
ltoes -0.366537
500
root -0.417275 17.563 46.9257 -0.112318 0.839456 -1.10822
lowerback 5.27384 -1.07572 -0.936488
upperback 0.716078 -1.39938 3.74996
thorax -2.10308 -0.680925 4.50082
lowerneck -17.9458 -2.73061 -9.21671
upperneck 21.3483 -2.45617 5.29202
head 9.9393 -1.27817 3.06138
rclavicle -4.42296e-015 -7.95139e-015
rhumerus -36.5942 -25.8205 -69.5727
rradius 21.6223
rwrist 16.828
rhand -14.7557 10.3003
rfingers 7.12502
rthumb 11.4004 -19.3698
lclavicle -4.42296e-015 -7.95139e-015
lhumerus -26.3731 11.4651 84.9196
lradius 26.5572
lwrist -11.0904
lhand -14.9662 23.5962
lfingers 7.12502
lthumb 11.1973 413.277
rfemur -14.6652 2.92915 24.524
rtibia 17.3264
rfoot 0.866407 -4.12487
rtoes 10.4017
lfemur -1.81544 -1.00167 -17.7592
ltibia 52.5189
lfoot 21.5845 -9.85208
ltoes 1.52501
501
root -0.435475 17.5319 47.0672 -0.389341 0.767166 -1.589
lowerback 4.6755 -0.999845 -0.450628
upperback 1.43643 -1.30057 3.80991
thorax -1.04443 -0.656021 4.25348
lowerneck -17.8807 -3.02672 -9.54232
upperneck 20.5283 -2.87914 5.78174
head 9.68342 -1.43297 3.21741
rclavicle -9.44227e-015 1.51076e-014
rhumerus -35.0781 -25.7666 -70.4947
rradius 21.6181
rwrist 16.7576
rhand -14.7329 10.2816
rfingers 7.12502
rthumb 11.4223 -19.3873
lclavicle -9.44227e-015 1.51076e-014
lhumerus -25.7106 11.492 85.0922
lradius 26.588
lwrist -11.3591
lhand -15.4641 22.8825
lfingers 7.12502
lthumb 10.7171 412.589
rfemur -12.8123 2.82848 25.2928
rtibia 16.4311
rfoot 0.430745 -3.97759
rtoes 8.41694
lfemur -3.2291 -0.735429 -17.0541
ltibia 54.903
lfoot 21.3784 -9.41624
ltoes 1.56573
502
root -0.450338 17.5265 47.2123 -0.582535 0.634962 -1.85602
lowerback 5.3183 -0.919683 -0.104712
upperback 1.06634 -1.15232 3.79237
thorax -1.80355 -0.569956 4.05159
lowerneck -17.0273 -2.30579 -8.44215
upperneck 20.9712 -1.99004 4.59754
head 9.58053 -1.08318 2.74431
rclavicle 6.75868e-015 -6.36111e-015
rhumerus -35.3959 -24.9213 -70.7399
rradius 21.7568
rwrist 16.4617
rhand -14.8431 10.7338
rfingers 7.12502
rthumb 11.316 -18.9409
lclavicle 6.75868e-015 -6.36111e-015
lhumerus -26.9098 11.2586 84.9692
lradius 26.9701
lwrist -11.3927
lhand -15.1232 23.3999
lfingers 7.12502
lthumb 11.046 413.089
rfemur -11.482 3.02287 25.7301
rtibia 15.6037
rfoot 0.302507 -3.93117
rtoes 6.42414
lfemur -4.52009 -0.431624 -16.6377
ltibia 57.0181
lfoot 20.1854 -8.96171
ltoes 0.874148
503
root -0.4681 17.529 47.3653 -0.818724 0.415873 -2.172
lowerback 5.59199 -0.803198 0.21094
upperback 1.12338 -0.973809 3.82142
thorax -1.91525 -0.48156 3.89624
lowerneck -17.4417 -2.56341 -8.78264
upperneck 20.8834 -2.36853 5.23441
head 9.6653 -1.20813 2.97343
rclavicle -8.94531e-015 -1.66979e-014
rhumerus -34.9635 -24.2417 -71.2778
rradius 21.9737
rwrist 16.1867
rhand -14.9325 10.9331
rfingers 7.12502
rthumb 11.2299 -18.7463
lclavicle -8.94531e-015 -1.66979e-014
lhumerus -27.0587 11.4296 84.9321
lradius 26.7635
lwrist -11.8102
lhand -15.0143 23.929
lfingers 7.12502
lthumb 11.1509 413.613
rfemur -10.3284 3.38111 26.2335
rtibia 14.9604
rfoot 0.0775385 -3.9815
rtoes 5.52554
lfemur -5.58201 -0.0547576 -16.1716
ltibia 58.9194
lfoot 18.0948 -8.67547
ltoes -0.763059
504
root -0.494189 17.5381 47.5172 -1.09343 0.167652 -2.49876
lowerback 5.30149 -0.657151 0.478539
upperback 1.76479 -0.793868 3.85984
thorax -1.10738 -0.403955 3.75914
lowerneck -18.5229 -2.8514 -9.0254
upperneck 20.7782 -2.69084 5.62826
head 9.86307 -1.31629 3.10623
rclavicle -9.93923e-016 -8.74653e-015
rhumerus -33.506 -24.1012 -72.1306
rradius 22.1222
rwrist 16.146
rhand -14.9705 10.7204
rfingers 7.12502
rthumb 11.1932 -18.961
lclavicle -9.93923e-016 -8.74653e-015
lhumerus -26.102 12.0414 84.9895
lradius 26.1541
lwrist -12.6838
lhand -15.4575 23.6877
lfingers 7.12502
lthumb 10.7235 413.394
rfemur -9.4306 4.14275 26.7751
rtibia 14.6835
rfoot -0.438313 -4.55457
rtoes 7.03608
lfemur -6.65447 0.419162 -15.6415
ltibia 60.5958
lfoot 15.8187 -8.62726
ltoes -4.11336
505
root -0.514753 17.5629 47.6618 -1.13489 0.0743482 -2.34639
lowerback 6.62667 -0.553608 0.292679
upperback 0.767861 -0.597412 3.81609
thorax -2.88669 -0.282439 3.84033
lowerneck -17.5332 -2.78448 -9.18517
upperneck 21.2999 -2.66213 5.62604
head 9.86455 -1.33652 3.14674
rclavicle -1.14301e-015 1.98785e-014
rhumerus -34.801 -22.7417 -71.9594
rradius 22.633
rwrist 15.6262
rhand -14.8439 10.5377
rfingers 7.12502
rthumb 11.3153 -19.137
lclavicle -1.14301e-015 1.98785e-014
lhumerus -28.0457 12.1846 84.6438
lradius 26.158
lwrist -13.2106
lhand -15.4987 23.4266
lfingers 7.12502
lthumb 10.6837 413.135
rfemur -9.07859 4.75179 26.7122
rtibia 14.4413
rfoot -0.14958 -5.0718
rtoes 7.23441
lfemur -8.05565 0.691267 -15.742
ltibia 62.0485
lfoot 14.0619 -8.4689
ltoes -6.87694
